<?xml version="1.0" encoding="utf-8"?>
<!-- Generator: Adobe Illustrator 16.0.0, SVG Export Plug-In . SVG Version: 6.00 Build 0)  -->
<!DOCTYPE svg PUBLIC "-//W3C//DTD SVG 1.1//EN" "http://www.w3.org/Graphics/SVG/1.1/DTD/svg11.dtd">
<svg version="1.1" id="Layer_1" xmlns="http://www.w3.org/2000/svg" xmlns:xlink="http://www.w3.org/1999/xlink" x="0px" y="0px"
	 width="512px" height="512px" viewBox="0 0 512 512" enable-background="new 0 0 512 512" xml:space="preserve">
<path opacity="0.5" fill="#FFFFFF" enable-background="new    " d="M437.5,386.6L306.9,256l130.6-130.6c14.1-14.1,14.1-36.8,0-50.9
	s-36.8-14.1-50.9,0L256,205.1L125.4,74.5c-14.1-14.1-36.8-14.1-50.9,0s-14.1,36.8,0,50.9L205.1,256L74.5,386.6
	c-14.1,14.102-14.1,36.802,0,50.9s36.8,14.1,50.9,0L256,306.9l130.6,130.6c14.102,14.1,36.802,14.1,50.9,0
	C451.5,423.4,451.5,400.6,437.5,386.6z"/>
</svg>
